<svg id="svg" version="1.1" width="400" height="400" xmlns="http://www.w3.org/2000/svg" xmlns:xlink="http://www.w3.org/1999/xlink" style="display: block;"><g id="svgg"><path id="path0" d="M81.886 75.222 C 63.971 77.958,54.015 97.153,62.022 113.519 C 72.465 134.861,103.700 132.750,111.323 110.185 C 117.706 91.291,101.639 72.207,81.886 75.222 M192.997 75.222 C 175.082 77.958,165.126 97.153,173.133 113.519 C 183.576 134.861,214.811 132.750,222.434 110.185 C 228.817 91.291,212.750 72.207,192.997 75.222 M304.108 75.222 C 286.193 77.958,276.237 97.153,284.244 113.519 C 294.687 134.861,325.922 132.750,333.545 110.185 C 339.928 91.291,323.861 72.207,304.108 75.222 M277.839 161.177 C 252.008 164.415,236.207 184.624,239.596 210.091 C 242.197 229.639,252.546 239.918,282.593 252.798 C 302.529 261.343,306.869 264.689,308.217 272.546 C 311.621 292.397,278.357 298.141,261.897 280.544 C 259.980 278.495,256.604 274.073,255.579 272.270 C 255.322 271.817,231.768 284.925,230.099 286.449 C 229.743 286.774,230.059 287.560,231.529 290.007 C 242.681 308.562,262.595 318.889,287.222 318.889 C 322.613 318.889,343.913 297.666,339.450 266.852 C 336.627 247.363,325.321 236.471,294.259 223.317 C 274.490 214.946,270.321 211.274,270.305 202.222 C 270.291 193.618,276.444 188.127,286.069 188.155 C 294.060 188.177,300.439 192.194,305.214 200.210 L 306.111 201.716 318.148 193.992 C 324.769 189.744,330.246 186.091,330.321 185.876 C 331.000 183.908,319.584 171.293,314.015 167.859 C 304.678 162.101,290.848 159.546,277.839 161.177 M180.741 217.510 C 180.741 253.035,180.606 273.535,180.358 275.565 C 179.102 285.865,174.763 290.167,165.147 290.645 C 156.395 291.080,150.864 287.771,145.471 278.872 C 144.304 276.946,143.220 275.180,143.063 274.948 C 142.814 274.578,118.994 288.635,117.734 289.896 C 117.239 290.390,118.470 292.846,121.433 297.275 C 130.877 311.395,145.806 318.861,164.630 318.879 C 188.140 318.901,204.491 308.112,209.802 289.074 C 212.119 280.768,211.974 285.013,212.117 221.019 L 212.248 162.593 196.494 162.593 L 180.741 162.593 180.741 217.510 " stroke="none" fill="#1f1f1f" fill-rule="evenodd"></path><path id="path1" d="M302.963 263.449 C 302.963 263.513,303.505 264.055,304.167 264.653 L 305.370 265.741 304.283 264.537 C 303.269 263.415,302.963 263.163,302.963 263.449 " stroke="none" fill="#3f3b1f" fill-rule="evenodd"></path><path id="path2" d="M112.704 101.481 C 112.704 102.602,112.773 103.060,112.858 102.500 C 112.943 101.940,112.943 101.023,112.858 100.463 C 112.773 99.903,112.704 100.361,112.704 101.481 M223.815 101.481 C 223.815 102.602,223.884 103.060,223.969 102.500 C 224.054 101.940,224.054 101.023,223.969 100.463 C 223.884 99.903,223.815 100.361,223.815 101.481 M334.926 101.481 C 334.926 102.602,334.995 103.060,335.080 102.500 C 335.165 101.940,335.165 101.023,335.080 100.463 C 334.995 99.903,334.926 100.361,334.926 101.481 M58.990 101.481 C 58.990 102.398,59.062 102.773,59.150 102.315 C 59.239 101.856,59.239 101.106,59.150 100.648 C 59.062 100.190,58.990 100.565,58.990 101.481 M170.101 101.481 C 170.101 102.398,170.173 102.773,170.261 102.315 C 170.350 101.856,170.350 101.106,170.261 100.648 C 170.173 100.190,170.101 100.565,170.101 101.481 M281.212 101.481 C 281.212 102.398,281.284 102.773,281.372 102.315 C 281.461 101.856,281.461 101.106,281.372 100.648 C 281.284 100.190,281.212 100.565,281.212 101.481 M180.541 162.685 C 180.445 162.940,180.409 187.815,180.462 217.963 L 180.558 272.778 180.649 217.689 L 180.741 162.601 196.574 162.500 L 212.407 162.399 196.562 162.311 C 184.162 162.241,180.679 162.323,180.541 162.685 M321.481 173.889 C 322.588 175.009,323.577 175.926,323.678 175.926 C 323.780 175.926,322.958 175.009,321.852 173.889 C 320.745 172.769,319.757 171.852,319.655 171.852 C 319.553 171.852,320.375 172.769,321.481 173.889 M273.866 192.685 L 272.778 193.889 273.981 192.801 C 275.104 191.787,275.355 191.481,275.069 191.481 C 275.006 191.481,274.464 192.023,273.866 192.685 M299.259 193.079 C 299.259 193.143,299.801 193.684,300.463 194.283 L 301.667 195.370 300.579 194.167 C 299.565 193.045,299.259 192.793,299.259 193.079 M238.982 200.926 C 238.986 201.741,239.062 202.030,239.151 201.570 C 239.239 201.109,239.236 200.442,239.143 200.088 C 239.051 199.734,238.978 200.111,238.982 200.926 M238.990 204.815 C 238.990 205.731,239.062 206.106,239.150 205.648 C 239.239 205.190,239.239 204.440,239.150 203.981 C 239.062 203.523,238.990 203.898,238.990 204.815 M308.254 275.000 C 308.257 276.019,308.329 276.391,308.414 275.828 C 308.499 275.265,308.497 274.432,308.409 273.976 C 308.321 273.521,308.251 273.981,308.254 275.000 M262.407 281.111 C 263.411 282.130,264.315 282.963,264.417 282.963 C 264.518 282.963,263.781 282.130,262.778 281.111 C 261.775 280.093,260.870 279.259,260.769 279.259 C 260.667 279.259,261.404 280.093,262.407 281.111 M285.463 291.009 C 286.125 291.091,287.208 291.091,287.870 291.009 C 288.532 290.927,287.991 290.859,286.667 290.859 C 285.343 290.859,284.801 290.927,285.463 291.009 M127.222 304.815 C 128.225 305.833,129.130 306.667,129.231 306.667 C 129.333 306.667,128.596 305.833,127.593 304.815 C 126.589 303.796,125.685 302.963,125.583 302.963 C 125.482 302.963,126.219 303.796,127.222 304.815 " stroke="none" fill="#6d631f" fill-rule="evenodd"></path><path id="path3" d="M105.000 82.593 C 105.796 83.407,106.530 84.074,106.632 84.074 C 106.734 84.074,106.166 83.407,105.370 82.593 C 104.575 81.778,103.840 81.111,103.739 81.111 C 103.637 81.111,104.204 81.778,105.000 82.593 M216.111 82.593 C 216.907 83.407,217.641 84.074,217.743 84.074 C 217.845 84.074,217.277 83.407,216.481 82.593 C 215.686 81.778,214.952 81.111,214.850 81.111 C 214.748 81.111,215.315 81.778,216.111 82.593 M327.222 82.593 C 328.018 83.407,328.752 84.074,328.854 84.074 C 328.956 84.074,328.388 83.407,327.593 82.593 C 326.797 81.778,326.063 81.111,325.961 81.111 C 325.859 81.111,326.427 81.778,327.222 82.593 M66.458 82.685 L 65.370 83.889 66.574 82.801 C 67.696 81.787,67.948 81.481,67.662 81.481 C 67.598 81.481,67.056 82.023,66.458 82.685 M177.569 82.685 L 176.481 83.889 177.685 82.801 C 178.807 81.787,179.059 81.481,178.773 81.481 C 178.709 81.481,178.168 82.023,177.569 82.685 M288.680 82.685 L 287.593 83.889 288.796 82.801 C 289.458 82.203,290.000 81.661,290.000 81.597 C 290.000 81.311,289.694 81.563,288.680 82.685 M104.983 120.833 L 103.519 122.407 105.093 120.943 C 106.556 119.582,106.837 119.259,106.557 119.259 C 106.496 119.259,105.788 119.968,104.983 120.833 M216.094 120.833 L 214.630 122.407 216.204 120.943 C 217.668 119.582,217.948 119.259,217.668 119.259 C 217.607 119.259,216.899 119.968,216.094 120.833 M327.205 120.833 L 325.741 122.407 327.315 120.943 C 328.779 119.582,329.059 119.259,328.779 119.259 C 328.718 119.259,328.010 119.968,327.205 120.833 M283.626 160.645 C 284.907 160.717,286.907 160.717,288.070 160.644 C 289.233 160.570,288.185 160.511,285.741 160.512 C 283.296 160.512,282.344 160.572,283.626 160.645 M212.403 218.148 C 212.403 249.009,212.446 261.634,212.500 246.204 C 212.553 230.773,212.553 205.523,212.500 190.093 C 212.446 174.662,212.403 187.287,212.403 218.148 M250.350 173.611 L 249.074 175.000 250.463 173.724 C 251.756 172.536,252.022 172.222,251.739 172.222 C 251.677 172.222,251.052 172.847,250.350 173.611 M284.907 188.403 C 285.264 188.497,285.847 188.497,286.204 188.403 C 286.560 188.310,286.269 188.234,285.556 188.234 C 284.843 188.234,284.551 188.310,284.907 188.403 M327.762 242.685 C 328.670 243.653,329.462 244.444,329.522 244.444 C 329.800 244.444,329.506 244.112,327.870 242.577 L 326.111 240.926 327.762 242.685 M340.135 274.630 C 340.136 276.667,340.198 277.453,340.273 276.376 C 340.349 275.300,340.348 273.634,340.272 272.673 C 340.196 271.712,340.134 272.593,340.135 274.630 M162.121 290.638 C 162.779 290.719,163.946 290.721,164.714 290.641 C 165.482 290.560,164.944 290.494,163.519 290.492 C 162.093 290.490,161.464 290.556,162.121 290.638 M199.801 306.759 L 197.963 308.704 199.907 306.866 C 201.714 305.158,202.022 304.815,201.745 304.815 C 201.687 304.815,200.812 305.690,199.801 306.759 M161.396 319.157 C 162.061 319.240,163.061 319.238,163.618 319.154 C 164.174 319.069,163.630 319.002,162.407 319.004 C 161.185 319.006,160.730 319.075,161.396 319.157 M166.210 319.157 C 166.876 319.240,167.876 319.238,168.433 319.154 C 168.989 319.069,168.444 319.002,167.222 319.004 C 166.000 319.006,165.545 319.075,166.210 319.157 M283.241 319.157 C 283.903 319.239,284.986 319.239,285.648 319.157 C 286.310 319.075,285.769 319.007,284.444 319.007 C 283.120 319.007,282.579 319.075,283.241 319.157 M288.796 319.157 C 289.458 319.239,290.542 319.239,291.204 319.157 C 291.866 319.075,291.324 319.007,290.000 319.007 C 288.676 319.007,288.134 319.075,288.796 319.157 " stroke="none" fill="#c5b21e" fill-rule="evenodd"></path><path id="path4" d="M88.148 29.510 C 61.052 31.588,42.212 42.361,32.031 61.596 C 30.879 63.773,29.659 65.718,29.320 65.919 C 28.779 66.238,28.772 66.328,29.259 66.654 C 29.632 66.903,29.663 67.028,29.352 67.031 C 29.097 67.034,28.886 67.329,28.882 67.685 C 28.878 68.042,28.297 70.144,27.591 72.357 C 21.829 90.406,21.921 111.114,27.905 143.333 C 31.445 162.392,31.327 169.421,27.334 177.378 C 23.123 185.769,12.959 191.481,2.244 191.481 L 0.741 191.481 0.741 199.074 L 0.741 206.667 2.130 206.668 C 12.228 206.679,22.077 211.832,26.586 219.465 C 31.591 227.937,31.695 234.596,27.200 258.610 C 14.385 327.076,33.248 363.860,84.236 369.832 C 91.475 370.680,308.155 370.680,315.394 369.832 C 366.382 363.860,385.245 327.076,372.429 258.610 C 367.934 234.596,368.039 227.937,373.044 219.465 C 377.553 211.832,387.401 206.679,397.500 206.668 L 398.889 206.667 398.889 199.074 L 398.889 191.481 397.386 191.481 C 386.670 191.481,376.507 185.769,372.296 177.378 C 368.302 169.421,368.184 162.392,371.724 143.333 C 375.499 123.011,376.077 117.845,376.096 104.259 C 376.159 59.690,358.358 36.751,318.704 30.303 L 313.519 29.460 201.667 29.421 C 140.148 29.400,89.065 29.440,88.148 29.510 M95.061 76.208 C 121.820 85.685,117.163 125.745,88.983 128.487 C 64.826 130.838,49.806 103.491,64.862 84.570 C 71.687 75.993,84.465 72.455,95.061 76.208 M206.172 76.208 C 232.931 85.685,228.274 125.745,200.094 128.487 C 175.937 130.838,160.917 103.491,175.974 84.570 C 182.798 75.993,195.576 72.455,206.172 76.208 M317.284 76.208 C 344.042 85.685,339.385 125.745,311.206 128.487 C 287.048 130.838,272.029 103.491,287.085 84.570 C 293.909 75.993,306.688 72.455,317.284 76.208 M292.407 160.747 C 305.349 161.997,314.607 166.292,322.704 174.801 C 325.618 177.862,330.741 184.898,330.741 185.838 C 330.741 186.245,307.316 201.483,306.302 201.736 C 305.949 201.824,305.409 201.286,304.850 200.290 C 294.767 182.341,267.592 185.683,270.697 204.490 C 271.944 212.038,275.681 215.025,293.349 222.599 C 328.396 237.623,338.767 248.521,340.220 271.852 C 342.034 301.007,318.832 320.588,284.194 319.134 C 263.229 318.253,246.480 310.348,235.330 296.072 C 233.097 293.213,229.042 286.754,229.315 286.493 C 230.173 285.672,255.342 271.501,255.540 271.727 C 255.689 271.898,256.687 273.323,257.758 274.895 C 265.124 285.708,273.801 290.457,286.296 290.516 C 300.030 290.582,307.963 284.901,307.963 275.000 C 307.963 265.705,303.987 262.322,281.852 252.787 C 252.596 240.184,242.290 230.029,239.468 211.026 C 234.793 179.545,258.077 157.431,292.407 160.747 M212.489 220.463 C 212.356 278.546,212.353 278.715,211.546 282.922 C 207.141 305.880,192.649 317.866,167.778 319.123 C 147.958 320.125,131.065 312.274,121.208 297.481 C 117.951 292.592,116.717 290.042,117.407 289.628 C 117.713 289.445,123.546 285.889,130.370 281.725 C 141.469 274.953,142.828 274.218,143.256 274.762 C 143.520 275.097,144.700 276.935,145.880 278.847 C 151.480 287.923,156.068 290.657,165.062 290.280 C 173.341 289.933,177.068 287.177,179.410 279.674 C 180.167 277.247,180.176 276.643,180.282 219.722 L 180.388 162.222 196.506 162.222 L 212.623 162.222 212.489 220.463 " stroke="none" fill="#f7df1e" fill-rule="evenodd"></path></g></svg>